<mxfile host="app.diagrams.net" modified="2021-02-24T11:13:37.087Z" agent="5.0 (Windows NT 10.0; WOW64) AppleWebKit/537.36 (KHTML, like Gecko) Chrome/88.0.4324.182 Safari/537.36" etag="X-IaJspjvPaMXcQ3BBeg" version="14.4.2" type="github">
  <diagram id="qPJqRtEZp3rwBY30tLII" name="Page-1">
    <mxGraphModel dx="868" dy="394" grid="1" gridSize="10" guides="1" tooltips="1" connect="1" arrows="1" fold="1" page="1" pageScale="1" pageWidth="827" pageHeight="1169" math="0" shadow="0">
      <root>
        <mxCell id="0" />
        <mxCell id="1" parent="0" />
        <mxCell id="XrGQLp8nVdgm5n98WTQp-1" value="&lt;font style=&quot;font-size: 14px&quot;&gt;&lt;b&gt;Class A 的实例&lt;/b&gt;&lt;br&gt;共 24字节&lt;/font&gt;" style="rounded=0;whiteSpace=wrap;html=1;verticalAlign=top;fillColor=#fff2cc;strokeColor=#d6b656;" vertex="1" parent="1">
          <mxGeometry x="290" y="130" width="280" height="50" as="geometry" />
        </mxCell>
        <mxCell id="XrGQLp8nVdgm5n98WTQp-2" value="Mark Word" style="rounded=0;whiteSpace=wrap;html=1;fillColor=#ffe6cc;strokeColor=#d79b00;" vertex="1" parent="1">
          <mxGeometry x="290" y="180" width="220" height="60" as="geometry" />
        </mxCell>
        <mxCell id="XrGQLp8nVdgm5n98WTQp-3" value="8 byte" style="rounded=0;whiteSpace=wrap;html=1;fillColor=#d5e8d4;strokeColor=#82b366;" vertex="1" parent="1">
          <mxGeometry x="510" y="180" width="60" height="60" as="geometry" />
        </mxCell>
        <mxCell id="XrGQLp8nVdgm5n98WTQp-4" value="类型指针" style="rounded=0;whiteSpace=wrap;html=1;fillColor=#ffe6cc;strokeColor=#d79b00;" vertex="1" parent="1">
          <mxGeometry x="290" y="240" width="90" height="60" as="geometry" />
        </mxCell>
        <mxCell id="XrGQLp8nVdgm5n98WTQp-5" value="4 byte" style="rounded=0;whiteSpace=wrap;html=1;fillColor=#d5e8d4;strokeColor=#82b366;" vertex="1" parent="1">
          <mxGeometry x="360" y="240" width="70" height="60" as="geometry" />
        </mxCell>
        <mxCell id="XrGQLp8nVdgm5n98WTQp-6" value="long 对象 l" style="rounded=0;whiteSpace=wrap;html=1;fillColor=#ffe6cc;strokeColor=#d79b00;" vertex="1" parent="1">
          <mxGeometry x="290" y="300" width="220" height="60" as="geometry" />
        </mxCell>
        <mxCell id="XrGQLp8nVdgm5n98WTQp-7" value="8 byte" style="rounded=0;whiteSpace=wrap;html=1;fillColor=#d5e8d4;strokeColor=#82b366;" vertex="1" parent="1">
          <mxGeometry x="510" y="300" width="60" height="60" as="geometry" />
        </mxCell>
        <mxCell id="XrGQLp8nVdgm5n98WTQp-8" value="&lt;b&gt;&lt;font style=&quot;font-size: 14px&quot;&gt;HotSpot虚拟机估算对象大小&lt;/font&gt;&lt;/b&gt;" style="rounded=0;whiteSpace=wrap;html=1;fillColor=#dae8fc;strokeColor=#6c8ebf;" vertex="1" parent="1">
          <mxGeometry x="10" y="10" width="230" height="60" as="geometry" />
        </mxCell>
        <mxCell id="XrGQLp8nVdgm5n98WTQp-9" value="&lt;pre style=&quot;background-color: #2b2b2b ; color: #a9b7c6 ; font-family: &amp;#34;courier new&amp;#34; ; font-size: 12.0pt&quot;&gt;&lt;pre style=&quot;font-family: &amp;#34;courier new&amp;#34; ; font-size: 12pt&quot;&gt;&lt;span style=&quot;color: #cc7832&quot;&gt;class &lt;/span&gt;A {&lt;br&gt;    &lt;span style=&quot;color: #cc7832&quot;&gt;private long &lt;/span&gt;&lt;span style=&quot;color: #9876aa&quot;&gt;l&lt;/span&gt;&lt;span style=&quot;color: #cc7832&quot;&gt;;&lt;br&gt;&lt;/span&gt;}&lt;/pre&gt;&lt;/pre&gt;" style="rounded=1;whiteSpace=wrap;html=1;align=left;" vertex="1" parent="1">
          <mxGeometry x="30" y="180" width="190" height="60" as="geometry" />
        </mxCell>
        <mxCell id="XrGQLp8nVdgm5n98WTQp-13" value="对齐填充" style="rounded=0;whiteSpace=wrap;html=1;fillColor=#e1d5e7;strokeColor=#9673a6;" vertex="1" parent="1">
          <mxGeometry x="430" y="240" width="80" height="60" as="geometry" />
        </mxCell>
        <mxCell id="XrGQLp8nVdgm5n98WTQp-14" value="4 byte" style="rounded=0;whiteSpace=wrap;html=1;fillColor=#d5e8d4;strokeColor=#82b366;" vertex="1" parent="1">
          <mxGeometry x="510" y="240" width="60" height="60" as="geometry" />
        </mxCell>
        <mxCell id="XrGQLp8nVdgm5n98WTQp-15" value="&lt;font style=&quot;font-size: 14px&quot;&gt;&lt;b&gt;Class B 的实例&lt;/b&gt;&lt;br&gt;共 32字节&lt;/font&gt;" style="rounded=0;whiteSpace=wrap;html=1;verticalAlign=top;fillColor=#fff2cc;strokeColor=#d6b656;" vertex="1" parent="1">
          <mxGeometry x="320" y="430" width="346" height="60" as="geometry" />
        </mxCell>
        <mxCell id="XrGQLp8nVdgm5n98WTQp-16" value="Mark Word" style="rounded=0;whiteSpace=wrap;html=1;fillColor=#ffe6cc;strokeColor=#d79b00;" vertex="1" parent="1">
          <mxGeometry x="320" y="490" width="270" height="60" as="geometry" />
        </mxCell>
        <mxCell id="XrGQLp8nVdgm5n98WTQp-17" value="8 byte" style="rounded=0;whiteSpace=wrap;html=1;fillColor=#d5e8d4;strokeColor=#82b366;" vertex="1" parent="1">
          <mxGeometry x="590" y="490" width="76" height="60" as="geometry" />
        </mxCell>
        <mxCell id="XrGQLp8nVdgm5n98WTQp-18" value="类型指针" style="rounded=0;whiteSpace=wrap;html=1;fillColor=#ffe6cc;strokeColor=#d79b00;" vertex="1" parent="1">
          <mxGeometry x="320" y="550" width="106" height="60" as="geometry" />
        </mxCell>
        <mxCell id="XrGQLp8nVdgm5n98WTQp-19" value="4 byte" style="rounded=0;whiteSpace=wrap;html=1;fillColor=#d5e8d4;strokeColor=#82b366;" vertex="1" parent="1">
          <mxGeometry x="426" y="550" width="80" height="60" as="geometry" />
        </mxCell>
        <mxCell id="XrGQLp8nVdgm5n98WTQp-20" value="A类的引用a" style="rounded=0;whiteSpace=wrap;html=1;fillColor=#ffe6cc;strokeColor=#d79b00;" vertex="1" parent="1">
          <mxGeometry x="320" y="670" width="106" height="60" as="geometry" />
        </mxCell>
        <mxCell id="XrGQLp8nVdgm5n98WTQp-21" value="4 byte" style="rounded=0;whiteSpace=wrap;html=1;fillColor=#d5e8d4;strokeColor=#82b366;" vertex="1" parent="1">
          <mxGeometry x="426" y="670" width="80" height="60" as="geometry" />
        </mxCell>
        <mxCell id="XrGQLp8nVdgm5n98WTQp-22" value="&lt;pre style=&quot;background-color: #2b2b2b ; color: #a9b7c6 ; font-family: &amp;#34;courier new&amp;#34; ; font-size: 12.0pt&quot;&gt;&lt;pre style=&quot;font-family: &amp;#34;courier new&amp;#34; ; font-size: 12pt&quot;&gt;&lt;pre style=&quot;font-family: &amp;#34;courier new&amp;#34; ; font-size: 12pt&quot;&gt;&lt;span style=&quot;color: #cc7832&quot;&gt;class &lt;/span&gt;B {&lt;br&gt;&lt;span style=&quot;color: #629755 ; font-style: italic&quot;&gt;&lt;br&gt;&lt;/span&gt;&lt;span style=&quot;color: #629755 ; font-style: italic&quot;&gt;    &lt;/span&gt;&lt;span style=&quot;color: #cc7832&quot;&gt;private boolean &lt;/span&gt;&lt;span style=&quot;color: #9876aa&quot;&gt;flag&lt;/span&gt;&lt;span style=&quot;color: #cc7832&quot;&gt;;&lt;br&gt;&lt;/span&gt;&lt;span style=&quot;color: #cc7832&quot;&gt;    &lt;/span&gt;&lt;span style=&quot;color: #629755 ; font-style: italic&quot;&gt;&lt;br&gt;&lt;/span&gt;&lt;span style=&quot;color: #629755 ; font-style: italic&quot;&gt;    &lt;/span&gt;&lt;span style=&quot;color: #cc7832&quot;&gt;private int &lt;/span&gt;&lt;span style=&quot;color: #9876aa&quot;&gt;i&lt;/span&gt;&lt;span style=&quot;color: #cc7832&quot;&gt;;&lt;br&gt;&lt;/span&gt;&lt;span style=&quot;color: #cc7832&quot;&gt;    &lt;/span&gt;&lt;span style=&quot;color: #629755 ; font-style: italic&quot;&gt;&lt;br&gt;&lt;/span&gt;&lt;span style=&quot;color: #629755 ; font-style: italic&quot;&gt;    &lt;/span&gt;&lt;span style=&quot;color: #cc7832&quot;&gt;private &lt;/span&gt;String &lt;span style=&quot;color: #9876aa&quot;&gt;j&lt;/span&gt;&lt;span style=&quot;color: #cc7832&quot;&gt;;&lt;br&gt;&lt;/span&gt;&lt;span style=&quot;color: #cc7832&quot;&gt;    &lt;/span&gt;&lt;span style=&quot;color: #629755 ; font-style: italic&quot;&gt;&lt;br&gt;&lt;/span&gt;&lt;span style=&quot;color: #629755 ; font-style: italic&quot;&gt;    &lt;/span&gt;&lt;span style=&quot;color: #cc7832&quot;&gt;private &lt;/span&gt;A &lt;span style=&quot;color: #9876aa&quot;&gt;a&lt;/span&gt;&lt;span style=&quot;color: #cc7832&quot;&gt;;&lt;br&gt;&lt;/span&gt;}&lt;/pre&gt;&lt;/pre&gt;&lt;/pre&gt;" style="rounded=1;whiteSpace=wrap;html=1;align=left;verticalAlign=top;" vertex="1" parent="1">
          <mxGeometry x="30" y="440" width="250" height="260" as="geometry" />
        </mxCell>
        <mxCell id="XrGQLp8nVdgm5n98WTQp-23" value="int 属性 i" style="rounded=0;whiteSpace=wrap;html=1;fillColor=#ffe6cc;strokeColor=#d79b00;" vertex="1" parent="1">
          <mxGeometry x="506" y="550" width="84" height="60" as="geometry" />
        </mxCell>
        <mxCell id="XrGQLp8nVdgm5n98WTQp-24" value="4 byte" style="rounded=0;whiteSpace=wrap;html=1;fillColor=#d5e8d4;strokeColor=#82b366;" vertex="1" parent="1">
          <mxGeometry x="590" y="550" width="76" height="60" as="geometry" />
        </mxCell>
        <mxCell id="XrGQLp8nVdgm5n98WTQp-26" value="boolean&lt;br&gt;flag" style="rounded=0;whiteSpace=wrap;html=1;fillColor=#ffe6cc;strokeColor=#d79b00;" vertex="1" parent="1">
          <mxGeometry x="320" y="610" width="46" height="60" as="geometry" />
        </mxCell>
        <mxCell id="XrGQLp8nVdgm5n98WTQp-27" value="1 byte" style="rounded=0;whiteSpace=wrap;html=1;fillColor=#d5e8d4;strokeColor=#82b366;" vertex="1" parent="1">
          <mxGeometry x="366" y="610" width="54" height="60" as="geometry" />
        </mxCell>
        <mxCell id="XrGQLp8nVdgm5n98WTQp-28" value="对齐填充" style="rounded=0;whiteSpace=wrap;html=1;fillColor=#e1d5e7;strokeColor=#9673a6;" vertex="1" parent="1">
          <mxGeometry x="420" y="610" width="50" height="60" as="geometry" />
        </mxCell>
        <mxCell id="XrGQLp8nVdgm5n98WTQp-29" value="3 byte" style="rounded=0;whiteSpace=wrap;html=1;fillColor=#d5e8d4;strokeColor=#82b366;" vertex="1" parent="1">
          <mxGeometry x="470" y="610" width="36" height="60" as="geometry" />
        </mxCell>
        <mxCell id="XrGQLp8nVdgm5n98WTQp-33" value="String引用j" style="rounded=0;whiteSpace=wrap;html=1;fillColor=#ffe6cc;strokeColor=#d79b00;" vertex="1" parent="1">
          <mxGeometry x="506" y="610" width="84" height="60" as="geometry" />
        </mxCell>
        <mxCell id="XrGQLp8nVdgm5n98WTQp-34" value="4 byte" style="rounded=0;whiteSpace=wrap;html=1;fillColor=#d5e8d4;strokeColor=#82b366;" vertex="1" parent="1">
          <mxGeometry x="590" y="610" width="76" height="60" as="geometry" />
        </mxCell>
        <mxCell id="XrGQLp8nVdgm5n98WTQp-35" value="对齐填充" style="rounded=0;whiteSpace=wrap;html=1;fillColor=#e1d5e7;strokeColor=#9673a6;" vertex="1" parent="1">
          <mxGeometry x="506" y="670" width="84" height="60" as="geometry" />
        </mxCell>
        <mxCell id="XrGQLp8nVdgm5n98WTQp-36" value="4 byte" style="rounded=0;whiteSpace=wrap;html=1;fillColor=#d5e8d4;strokeColor=#82b366;" vertex="1" parent="1">
          <mxGeometry x="590" y="670" width="76" height="60" as="geometry" />
        </mxCell>
      </root>
    </mxGraphModel>
  </diagram>
</mxfile>
